PathFileType	4	(X/Y/Z)	Kaydara	
DataRate	CameraRate	NumFrames	NumMarkers	Units	OrigDataRate	OrigDataStartFrame	OrigNumFrames	
240.00	240.00	4	72	mm	240.00	89	355	
Frame#	Time	Hips			RightUpLeg			RightLeg			RightFoot			RightFoot_End			LeftUpLeg			LeftLeg			LeftFoot			LeftFoot_End			Spine			Spine1			Spine2			Spine3			Neck			Head			Head_End			RightShoulder			RightArm			RightForeArm			RightHand			RightHandThumb1			RightHandThumb2			RightHandThumb3			RightHandThumb3_End			RightInHandIndex			RightHandIndex1			RightHandIndex2			RightHandIndex3			RightHandIndex3_End			RightInHandMiddle			RightHandMiddle1			RightHandMiddle2			RightHandMiddle3			RightHandMiddle3_End			RightInHandRing			RightHandRing1			RightHandRing2			RightHandRing3			RightHandRing3_End			RightInHandPinky			RightHandPinky1			RightHandPinky2			RightHandPinky3			RightHandPinky3_End			LeftShoulder			LeftArm			LeftForeArm			LeftHand			LeftHandThumb1			LeftHandThumb2			LeftHandThumb3			LeftHandThumb3_End			LeftInHandIndex			LeftHandIndex1			LeftHandIndex2			LeftHandIndex3			LeftHandIndex3_End			LeftInHandMiddle			LeftHandMiddle1			LeftHandMiddle2			LeftHandMiddle3			LeftHandMiddle3_End			LeftInHandRing			LeftHandRing1			LeftHandRing2			LeftHandRing3			LeftHandRing3_End			LeftInHandPinky			LeftHandPinky1			LeftHandPinky2			LeftHandPinky3			LeftHandPinky3_End			
		X1	Y1	Z1	X2	Y2	Z2	X3	Y3	Z3	X4	Y4	Z4	X5	Y5	Z5	X6	Y6	Z6	X7	Y7	Z7	X8	Y8	Z8	X9	Y9	Z9	X10	Y10	Z10	X11	Y11	Z11	X12	Y12	Z12	X13	Y13	Z13	X14	Y14	Z14	X15	Y15	Z15	X16	Y16	Z16	X17	Y17	Z17	X18	Y18	Z18	X19	Y19	Z19	X20	Y20	Z20	X21	Y21	Z21	X22	Y22	Z22	X23	Y23	Z23	X24	Y24	Z24	X25	Y25	Z25	X26	Y26	Z26	X27	Y27	Z27	X28	Y28	Z28	X29	Y29	Z29	X30	Y30	Z30	X31	Y31	Z31	X32	Y32	Z32	X33	Y33	Z33	X34	Y34	Z34	X35	Y35	Z35	X36	Y36	Z36	X37	Y37	Z37	X38	Y38	Z38	X39	Y39	Z39	X40	Y40	Z40	X41	Y41	Z41	X42	Y42	Z42	X43	Y43	Z43	X44	Y44	Z44	X45	Y45	Z45	X46	Y46	Z46	X47	Y47	Z47	X48	Y48	Z48	X49	Y49	Z49	X50	Y50	Z50	X51	Y51	Z51	X52	Y52	Z52	X53	Y53	Z53	X54	Y54	Z54	X55	Y55	Z55	X56	Y56	Z56	X57	Y57	Z57	X58	Y58	Z58	X59	Y59	Z59	X60	Y60	Z60	X61	Y61	Z61	X62	Y62	Z62	X63	Y63	Z63	X64	Y64	Z64	X65	Y65	Z65	X66	Y66	Z66	X67	Y67	Z67	X68	Y68	Z68	X69	Y69	Z69	X70	Y70	Z70	X71	Y71	Z71	X72	Y72	Z72	

89	0.367	921.0129	906.651	56.2195	997.9854700354728	891.1021171178464	1.853211698690247	916.743620062458	490.0477605050357	-87.23487628680364	904.3232693324684	106.50674281607427	-161.71391536107078	829.3287118932888	30.95303132076365	-2.955493199426722	852.9495025170315	893.7536539186995	122.18432581577338	788.8216092898109	490.5231599144006	216.2068221616035	747.1069376980993	59.146963945255514	297.21444190276605	613.9889560074048	-15.386552929351497	181.80751552452475	878.7674860262102	1033.629802426129	5.687959624810836	829.9287131807612	1100.2139592268093	-45.01185501072838	774.4116416038057	1163.7420126355	-100.36055902191424	714.8849298193222	1214.8872450212987	-157.4949834566537	650.8256360339207	1269.747857494678	-217.8597784921747	591.2226392431992	1319.5194178172733	-271.9597799123189	472.9278190943444	1413.668776240705	-323.3247222074893	694.6242155497812	1253.2268987698292	-219.48025626644133	754.7542145580942	1245.4114756554961	-331.17940223729096	764.3425407066584	975.637837200613	-323.8766023320944	815.127676688185	755.249990182691	-397.050367597092	819.0846948357776	742.0022514757666	-410.0993875997411	808.8180291543135	731.7675018341275	-422.62332515597143	802.1257483568631	722.8418878543821	-430.2682723668642	796.9379899123962	713.8627372907879	-435.7204192474186	822.7822026943238	733.1441719634785	-407.3423505246757	828.836827947934	697.8740839153173	-419.4872443672986	823.9978310032438	679.7223408427583	-428.4436692494188	815.1781077416949	676.1479827839611	-434.22363548820147	803.9581007963242	678.3905040836587	-439.1505472852419	823.3853002048762	729.7850018129567	-404.01511137245507	829.619611075752	693.5648203873977	-414.0610308450699	824.3879319500397	673.4368102203211	-423.3564872704488	813.7705769987925	668.9705361370476	-430.10052752115223	801.5051935009258	671.3494336885157	-435.38000178514375	823.7530023743102	728.2281013094297	-401.34475738713513	829.9405796273905	694.1712452519721	-408.00131761367265	825.4194529926992	676.3576648318426	-415.59920314419577	815.1987731532856	671.9062592654471	-421.836677008361	803.6759783256904	674.0751125658238	-426.67386428439437	823.244248156367	728.1147368789285	-397.99195551398833	828.9302745782891	696.5159100259258	-402.00154439865827	825.3427875908983	681.9794738235005	-407.27028724882194	817.9036797745514	678.6010323011152	-411.4255105354444	807.7055054321886	680.4465637593742	-415.4834770367229	648.9099393129563	1250.4115919685023	-174.63144062949414	584.4606613825131	1190.1607654149343	-79.8251034533936	692.0049050584205	1003.6841828119739	-205.43988150904514	835.5064626724757	825.6386321665226	-325.40963744481616	820.911272627982	819.248186384272	-346.19617527455375	815.5504155899248	800.7414671903261	-379.409471540759	812.1396750093935	785.7030232526262	-402.47629417086785	809.5722320169616	771.3265328643259	-421.65228410037014	819.631029568141	811.3062998635238	-346.96105512257157	801.3184358025306	779.8975820531077	-383.6353667376182	794.4367775971234	756.1550557235978	-414.0537362536172	794.5344022438438	744.5484372866885	-432.85806360365035	797.5669303701986	737.069195303728	-448.3503907265124	821.4243600354147	806.4612432542796	-345.7461910601106	804.5311525381824	773.2059705846112	-380.8586998091629	797.3252359402326	746.7583794288175	-413.7780447547369	797.588604072701	732.496420100319	-436.3337048573042	800.9775128094378	724.1868606832953	-453.2213947102327	823.0975986533869	803.8385503266172	-343.9091915238834	809.2317613740826	771.75508384575	-373.6570293838942	803.2884063576831	748.2039869703034	-402.015617184481	803.7216095299266	734.1820562090419	-423.5949463448703	806.9929461255163	726.2433376903052	-439.3895588901086	826.0376365912321	801.7348745055767	-341.06688051895406	814.9216899999496	770.9971478313884	-366.4672617186773	810.7497030835654	751.4992967140579	-388.52521658915475	811.3497418907709	740.962531316118	-403.9505715802559	814.4110922573118	733.752220129041	-417.7609224636646
90	0.371	921.0129	906.651	56.2195	997.7324346529222	890.9730997227534	1.7474741950433432	916.5805985808722	489.8835502597976	-87.21637022609704	904.5796799331854	106.43489503411783	-161.86051467437233	829.5894251689588	30.86592377864673	-3.107798713453561	853.1920633741673	893.881852814517	122.29556747032397	789.1063204977388	490.65899482303166	216.3676619499968	747.2747336437678	59.290853885248715	297.2709820086593	614.1994771530103	-15.284378733488687	181.8499362393412	878.8204863254518	1033.6376509321199	5.667901174962668	829.9962047132243	1100.251413444555	-45.00696792842688	774.4935467461034	1163.8158880765932	-100.3252704193544	714.9799611942733	1215.0027880547598	-157.42718838224056	650.9329224109414	1269.905231509273	-217.7571944674221	591.3413422378276	1319.7145360451063	-271.8248378721095	473.0131489945759	1413.8312908000942	-323.1586227944608	694.6848135969025	1253.3449429055486	-219.37807599651873	754.7111260089403	1245.5165241186114	-330.9775773805414	764.4815749481372	975.9826976385265	-323.8372497250015	813.6691716589244	756.3409752843812	-396.60261993861667	817.7988002349013	743.2639815266931	-409.6761249293823	807.6403402738092	733.0491912007211	-422.30843342707647	801.000105042061	724.1238682117948	-430.03696433163094	795.8358118027811	715.1333020326	-435.56575041411304	821.429992095239	734.3864417758765	-406.94521692021635	827.5546383349232	699.2377788224014	-419.220259931743	822.7569672790625	681.097423601514	-428.29520722789204	813.9724055288691	677.4916981616934	-434.1474962004711	802.7879281398209	679.6823102977087	-439.1333502593913	821.9669255785293	730.982528425472	-403.636878845965	828.2337406819521	694.8566092814458	-413.819931988786	823.0381901834635	674.7346388006775	-423.246836294667	812.4589643853259	670.2274629032339	-430.079149237685	800.2303431834741	672.5480751082935	-435.4235956375753	822.286035038241	729.3916059604031	-400.9763276179448	828.4603746022675	695.3916736007598	-407.7637349532973	823.9615063815506	677.576670131628	-415.47812504082407	813.7727126602799	673.0822524792197	-421.8017715668084	802.2821697103886	675.194612806859	-426.7005399288759	821.7197387816261	729.2301623165805	-397.6326974549452	827.3579550471904	697.6562251563041	-401.76730155003	823.7739752724295	683.1079726727716	-407.1317870833438	816.3512027189109	679.6929847552927	-411.3510392006509	806.1776109959623	681.4855003619169	-415.4642574697224	649.0580544476011	1250.5808090481278	-174.55325492072063	584.7799951430999	1190.5272825719328	-79.77130567660109	692.5381840486134	1004.3261828037691	-205.4947927997923	836.4082954653006	826.8885548091065	-325.5555141217536	821.7730728132453	820.5706916934312	-346.38349258255414	816.3761900528203	802.1438695162332	-379.59617697982685	812.9443183733194	787.1568468541329	-402.65468341137523	810.3626597268712	772.8196394168261	-421.8169941369339	820.5036569675506	812.6194611984134	-347.12611765365875	802.1599141440835	781.2958479724915	-383.7908198183785	795.255065245679	757.6175154338594	-414.19055853599843	795.3366435366834	746.0503877464934	-432.98393694223824	798.3547728286647	738.6035018834295	-448.4676195224704	822.3087928273069	807.7602503365496	-345.88956109164343	805.3915783207999	774.5803168107662	-380.9809584585431	798.1620281552689	748.2006482412119	-413.8771365382344	798.4068210976457	733.9852923113042	-436.4182099676332	801.7803603481673	725.7106418921418	-453.29577066724374	823.9911875169096	805.1253173422641	-344.03753037815665	810.1119113549661	773.0985792036805	-373.75362928437914	804.1496780296067	749.6043822463248	-402.0891470162235	804.5658803554701	735.6261757137611	-423.6528777539099	807.8232088239445	727.7197096192485	-439.437246605865	826.9424244673094	803.0055536810438	-341.1776684804487	815.8211604412729	772.3097636169985	-366.53832085227936	811.6368109293525	752.8536313595608	-388.57344948431245	812.225779639572	742.3469050063723	-403.9853320828337	815.2754869198153	735.1640929408737	-417.78539065056094
91	0.375	921.0129	906.651	56.2195	997.4856100352811	890.8596055275381	1.6459096588460782	916.570443069797	489.6781131549956	-87.02228895461555	904.9790620508463	106.32432587412168	-161.83753992924215	830.005942048986	30.720814742625233	-3.093664701976668	853.4313838321133	893.9945337873017	122.40075098045004	789.3245442371192	490.76039388779236	216.39516623237657	747.1572873982122	59.36140505361885	296.9216506282881	614.1484343553335	-15.303551418915275	181.49020443759684	878.8601986473428	1033.6450126452862	5.656168780148812	830.0440204987968	1100.2862227562248	-44.99098232781365	774.5477610307842	1163.8836811257154	-100.27532830488326	715.0356941441913	1215.106288465105	-157.3380968554302	650.9884682074344	1270.0445403328288	-217.62563925434912	591.3973709904333	1319.8868864994593	-271.6532027328582	473.0153651946232	1413.9726212893931	-322.90079259405275	694.6850674769998	1253.4323428686291	-219.25672330954345	754.6079304041717	1245.5945750760425	-330.7503082425296	764.5862378552886	976.3007625869449	-323.8114718008311	812.7319617396932	757.2837061015733	-396.58832904067754	817.0515069755563	744.3811345333067	-409.6833475492951	807.0159325846346	734.187849548099	-422.4435850354808	800.4349746479202	725.2627143324939	-430.2714887820781	795.2975679018577	716.2596674030708	-435.89190511862006	820.6066853602728	735.4801676598497	-406.98445218154	826.8039664115825	700.448730324266	-419.40897355576004	822.0520868993727	682.317565935677	-428.6243949390179	813.3091839694323	678.6807542961697	-434.56404209288377	802.1680797756475	680.8208155519507	-439.6222235526882	821.0693018879854	732.0285374930805	-403.70060328539853	827.3667601251223	695.9911649325846	-414.04270385928095	822.2111212203592	675.8724447742803	-423.62567480200545	811.6773357816242	671.324506761197	-430.56471826484085	799.4938330927592	673.5882326373576	-435.9889599466607	821.3339393885949	730.401554404661	-401.0532706763288	827.4881346341792	696.4516356119049	-407.9938901339111	823.0137450713338	678.6324035934206	-415.8469205672716	812.8632986865753	674.0949219540673	-422.2749023585902	801.4125814480806	676.1520124263876	-427.2493469710753	820.7036143524024	730.1899632265877	-397.72268653754503	826.2835375396085	698.6332273081988	-402.0049932852765	822.7031578939002	684.07034799628	-407.4839043064602	815.3006069316725	680.6185165775784	-411.78090524128925	805.1578457157627	682.3589469705058	-415.9620973908012	649.1722217903596	1250.7492297068798	-174.44156005051673	585.0657229136712	1190.9008147026511	-79.68384136775684	696.090910512778	1007.752675971064	-206.84848099637807	845.1449452059688	834.4198065744257	-326.43077990618775	831.1350185176846	829.264867650752	-347.5743087228497	826.2712238737323	811.6526909304071	-380.58698989934237	823.1528371199626	797.1566978024758	-403.53372628813196	820.7830698372281	783.1635609291143	-422.62637987221257	829.7159578668745	821.1763418058	-348.5129847068347	811.8843220498934	791.009211557317	-385.7649133636046	805.3351958676269	767.977887114908	-416.2074226442098	805.6449061498505	756.6987970418419	-434.75858921823345	808.856560738238	749.4132997722969	-449.8604689084665	831.3460907713811	816.0618446500491	-347.31341803404587	814.8337079663277	783.8718639653423	-382.99767814264624	807.9675578060366	758.160574129487	-415.94304454182736	808.4757032611183	744.2746772222415	-438.19311447791546	812.0552227238722	736.1678311320976	-454.6535109856051	832.8915041402108	813.2183669740873	-345.4765458846694	819.2553335066873	781.9017044461203	-375.748855045707	813.5839168188934	758.9500228751058	-404.1288441902245	814.240365656333	745.2683461862738	-425.4127257065678	817.684842945818	737.509587706793	-440.8052597590978	835.6721415817672	810.8142508673305	-342.5855282471147	824.6679495891594	780.5992698219047	-368.45079955830545	820.674955365287	761.5119918584484	-390.5215625591829	821.4190771698358	751.1898388425926	-405.72934073425597	824.6229985631558	744.1196078797551	-419.18231061419704
92	0.379	921.0129	906.651	56.2195	997.2478473314346	890.7479317294445	1.5553591904043915	916.501745503718	489.4858574381893	-86.82018263007377	905.3194237936796	106.22492058475997	-161.79319827344867	830.362682747353	30.580624916823528	-3.0615061626961486	853.6590735880488	894.1046495836905	122.49485999183403	789.5435139444915	490.85090562013886	216.3848882996891	747.0099364571577	59.41431365976859	296.4929695264844	614.0779781798296	-15.353100942947647	181.04732149887846	878.9110969733754	1033.6556485196413	5.644293581104727	830.1030496500928	1100.3240890173254	-44.97539821076273	774.609975793591	1163.9527408957997	-100.22477259975646	715.090342684166	1215.2060789688521	-157.2436827115393	651.0326421222733	1270.1749017403317	-217.48297254294005	591.4324775995685	1320.045812110656	-271.46435239776554	473.0272242760003	1414.1179253199368	-322.6687927919547	694.6688360323647	1253.5036150672508	-219.13144988255587	754.4862511173385	1245.6556816002824	-330.5137575144974	764.6168339768972	976.617774149113	-323.7175193613888	812.1210624955297	758.1758494630428	-396.71163057439776	816.600459255871	745.4478360590342	-409.8319028616478	806.6728758030855	735.2870771347099	-422.69954896463713	800.1453575959046	726.3700845010237	-430.6115644113111	795.0339070290979	717.3614136826318	-436.31006276450694	820.0927393346437	736.5234053255326	-407.1640446765139	826.3556725906726	701.6147817751756	-419.72912250759236	821.6472138512049	683.5021007381674	-429.06703516381396	812.942700592303	679.8423038178034	-435.0779004942778	801.841048230523	681.9401014889671	-440.19169927693247	820.4937962990134	733.0248583628953	-403.9017772285672	826.8219809260534	697.0819064320732	-414.39263743471236	821.7053971003284	676.9766932863104	-424.1116984738645	811.2139191716741	672.3978254387179	-431.13782102645	799.0716466755108	674.613738894089	-436.62349177833676	820.713151065768	731.3622106885656	-401.2659506530264	826.855276069507	697.467709701244	-408.3493889481059	822.4063562079895	679.6532778010542	-416.32327502202895	812.2921719402297	675.0822632640713	-422.8364454361655	800.8780560205079	677.0926468651518	-427.8692063066828	820.0295801302042	731.1011444588805	-397.9458265460665	825.5652752992283	699.5668261133361	-402.3650705929029	821.9919700211399	684.9966472879355	-407.94363749117684	814.6094295630227	681.5149716570949	-412.30417674075846	804.4953782893597	683.2109260763834	-416.5378283124652	649.2875915275064	1250.9197908354156	-174.31550538282286	585.3603311306515	1191.2746833550568	-79.58070536987081	696.8981798819759	1008.9054306209634	-206.91265806889373	846.4898478787645	836.6909949839658	-326.0635150082084	832.5401521689553	831.636044740957	-347.06073183505373	827.677441274167	813.9420356745956	-379.8837708814431	824.546654102227	799.3831309307261	-402.6964588854368	822.1553186099694	785.3324993878635	-421.675677528503	831.0819637383919	823.5538598454667	-347.97997552104397	813.2232490106401	793.4478605986188	-384.96667284689306	806.6422185249976	770.3610915041587	-415.2189516615391	806.9377242045512	758.9938115908978	-433.6709278452229	810.141423888216	751.599090365436	-448.7035780654773	832.6766775482527	818.4165056606324	-346.7839988181184	816.1187255207035	786.2738309813716	-382.21151332543883	809.2131659810427	760.4986983515948	-414.95063349903995	809.7019649254946	746.5047908465365	-437.0816606180765	813.2717081791141	738.2776613598675	-453.46661577369076	834.1978091875771	815.5562954556832	-344.9564314372523	820.4998300030131	784.2703220919976	-375.0066954011697	814.7894314226895	761.2595018789598	-403.2086713697544	815.42476086473	747.471791032352	-424.37866259935265	818.8588715049802	739.5990413947143	-439.70070923019614	836.9509059683801	813.1234772500953	-342.0838784603224	825.8731754670132	782.9222336007288	-367.75675857822966	821.8420031456279	763.7820047737674	-389.68870476024676	822.5673585948157	753.3798003142465	-404.8152051433507	825.7601774017859	746.2070502719969	-418.2067656809684
